<svg xmlns="http://www.w3.org/2000/svg" width="103.125" height="103.125" version="1.0">
  <path d="m0 0 41.22-41.28L82.5 0 41.22 41.22 0 0" style="fill:#e77817;fill-opacity:1;fill-rule:evenodd;stroke:none" transform="matrix(1.25 0 0 -1.25 0 51.525)"/>
  <path d="M0 0v-1.92l-1.68.72-.24-1.2 1.68-.72-1.2-1.44.96-.72 1.2 1.44.96-1.44 1.2.72-1.2 1.44 1.68.72-.24 1.2-1.92-.72V0H0" style="fill:#1f1a17;fill-opacity:1;fill-rule:evenodd;stroke:none" transform="matrix(1.25 0 0 -1.25 50.625 70.125)"/>
  <path d="m0 0-.72-.96-1.44-.24v-.96h1.92v-4.8H1.2V0H0" style="fill:#1f1a17;fill-opacity:1;fill-rule:evenodd;stroke:none" transform="matrix(1.25 0 0 -1.25 51.225 81.825)"/>
  <path d="M0 0h4.08v-10.08H6v-2.58H4.08v-3.6H.72v3.6h-6.96v3.06L0 0" style="fill:#1f1a17;fill-opacity:1;fill-rule:evenodd;stroke:none" transform="matrix(1.25 0 0 -1.25 61.425 26.7)"/>
  <path d="m0 0-4.56-7.2H0V0" style="fill:#e77817;fill-opacity:1;fill-rule:evenodd;stroke:none" transform="matrix(1.25 0 0 -1.25 62.625 30.3)"/>
  <path d="M458.01964 450.68183h4.2v-4.5h-4.2v4.5z" style="fill:#1f1a17;fill-opacity:1;fill-rule:nonzero;stroke:none" transform="translate(-411.29464 -403.65683)"/>
  <path d="M0 0h2.64v-16.74H-.72v11.46h-3.84v2.4l1.92.24 1.44.48.48.24.24.48L0 0" style="fill:#1f1a17;fill-opacity:1;fill-rule:evenodd;stroke:none" transform="matrix(1.25 0 0 -1.25 39.825 26.1)"/>
  <path d="m-9746.9675 618.22734 45.225 45 45-45-45-44.925-45.225 44.925z" style="fill:none;stroke:#1f1a17;stroke-width:.89874995;stroke-linecap:round;stroke-linejoin:round;stroke-miterlimit:10;stroke-dasharray:none;stroke-opacity:1" transform="translate(9752.87636 -566.70234)"/>
</svg>
