<svg xmlns="http://www.w3.org/2000/svg" width="103.725" height="103.125">
  <path d="m321.15178 610.92615 51.825 51.6 51.9-51.6-51.9-51.525-51.825 51.525" style="fill:#e77817;fill-opacity:1;fill-rule:evenodd;stroke:none" transform="translate(-321.15178 -559.40115)"/>
  <path d="M372.37678 630.12615v2.1l-2.4-.9-.3 1.8 2.1.6-1.5 1.8 1.5.9 1.2-1.8 1.5 1.8 1.2-.9-1.5-1.8 2.4-.6-.6-1.8-2.1.9v-2.1h-1.5M372.37678 641.22615l-.6 1.2-1.5.3v1.2h1.8v6h1.8v-8.7h-1.5" style="fill:#1f1a17;fill-opacity:1;fill-rule:evenodd;stroke:none" transform="translate(-321.15178 -559.40115)"/>
  <path d="m328.05178 610.92615 44.925 45 45-45-45-44.925z" style="fill:none;stroke:#1f1a17;stroke-width:.89874995;stroke-linecap:round;stroke-linejoin:round;stroke-miterlimit:10;stroke-opacity:1;stroke-dasharray:none" transform="translate(-321.15178 -559.40115)"/>
  <path d="M376.57678 585.20115h12v3.6h-9l-.6 4.2.9-.3.9-.6h3.3l1.5.3 1.2.6c3.2325 2.49875 3.02375 5.20625 2.4 8.925l-1.8 2.4-1.2.6-1.2.9-1.5.3h-3.3c-4.02375-1.16375-5.0625-2.025-5.7-6.225h4.2l.3 1.425.6.9.9.3 1.2.3h.9l1.8-.9.6-1.125.3-1.8-.3-1.5-.6-1.2-1.2-.6-1.5-.3h-.6l-.9.3-.6.3-.6.9-3.6-.3 1.2-11.4" style="fill:#1f1a17;fill-opacity:1;fill-rule:evenodd;stroke:none" transform="translate(-321.15178 -559.40115)"/>
  <path d="M367.57678 605.52615h4.5v-4.2h-4.5v4.2z" style="fill:#1f1a17;fill-opacity:1;fill-rule:nonzero;stroke:none" transform="translate(-321.15178 -559.40115)"/>
  <path d="M360.75178 584.60115h3.3v20.925h-3.9v-14.325h-5.1v-2.7l2.7-.3 1.5-.6 1.2-1.2.3-.9v-.9" style="fill:#1f1a17;fill-opacity:1;fill-rule:evenodd;stroke:none" transform="translate(-321.15178 -559.40115)"/>
</svg>
