<svg xmlns="http://www.w3.org/2000/svg" width="103.125" height="103.125" version="1.0">
  <path d="m0 0 41.28-41.28L82.5 0 41.28 41.22 0 0" style="fill:#e77817;fill-opacity:1;fill-rule:evenodd;stroke:none" transform="matrix(1.25 0 0 -1.25 0 51.525)"/>
  <path d="M0 0v-1.68l-1.68.72-.24-1.44 1.68-.48-1.2-1.44.96-.72L.72-3.6l.96-1.44 1.2.72-1.2 1.44 1.68.48-.24 1.44-1.92-.72V0H0" style="fill:#1f1a17;fill-opacity:1;fill-rule:evenodd;stroke:none" transform="matrix(1.25 0 0 -1.25 50.7 70.725)"/>
  <path d="m0 0-.48-.96-1.44-.24v-1.2h1.68v-4.8H1.2V0H0" style="fill:#1f1a17;fill-opacity:1;fill-rule:evenodd;stroke:none" transform="matrix(1.25 0 0 -1.25 51.66389 81.825)"/>
  <path d="M0 0h-3.36c-.384 1.532-1.459 1.85-2.88 1.68l-.96-.48-.24-.48-.48-1.44-.24-1.92.48.48.72.48H-6l.96.24 1.2-.24c2.3-.421 3.648-1.776 4.08-4.08.732-5.571-3.369-8.087-8.4-6.66-4.768 2.262-4.657 12.444-.96 15.54 1.684 1.439 3.97 1.487 6 .96C-1.03 3.442-.312 1.996 0 0" style="fill:#1f1a17;fill-opacity:1;fill-rule:evenodd;stroke:none" transform="matrix(1.25 0 0 -1.25 68.4 30.6)"/>
  <path d="M0 0h-.96l-.72-.72-.72-.96v-.96l.24-1.44.48-.9.24-.48c3.386-1.034 4.516.578 4.08 4.02L1.2 0H0" style="fill:#e77817;fill-opacity:1;fill-rule:evenodd;stroke:none" transform="matrix(1.25 0 0 -1.25 61.2 36)"/>
  <path d="M480.08392 685.54076h4.5v-4.425h-4.5v4.425z" style="fill:#1f1a17;fill-opacity:1;fill-rule:nonzero;stroke:none" transform="translate(-433.58392 -639.41576)"/>
  <path d="M0 0h2.64v-16.74H-.48v11.46h-4.08v2.4h.24l1.92.24 1.2.48.48.24.48.48.24.72V0" style="fill:#1f1a17;fill-opacity:1;fill-rule:evenodd;stroke:none" transform="matrix(1.25 0 0 -1.25 39.6 25.2)"/>
  <path d="m-9746.9675 618.22734 45.225 45 45-45-45-44.925-45.225 44.925z" style="fill:none;stroke:#1f1a17;stroke-width:.89874995;stroke-linecap:round;stroke-linejoin:round;stroke-miterlimit:10;stroke-dasharray:none;stroke-opacity:1" transform="translate(9753.41708 -566.70234)"/>
</svg>
